



Format                                   : AVI
Format/Info                              : Audio Video Interleave
File size                                : 819 MiB
Duration                                 : 1h 51mn
Overall bit rate mode                    : Variable
Overall bit rate                         : 1 026 Kbps
Writing application                      : VirtualDubMod 1.5.10.2 (build 2540/release)
Writing library                          : VirtualDubMod build 2540/release

Video
ID                                       : 0
Format                                   : MPEG-4 Visual
Format profile                           : Advanced Simple@L5
Format settings, BVOP                    : 2
Format settings, QPel                    : No
Format settings, GMC                     : No warppoints
Format settings, Matrix                  : Default (H.263)
Codec ID                                 : XVID
Codec ID/Hint                            : XviD
Duration                                 : 1h 51mn
Bit rate                                 : 934 Kbps
Width                                    : 544 pixels
Height                                   : 400 pixels
Display aspect ratio                     : 4:3
Frame rate                               : 25.000 fps
Color space                              : YUV
Chroma subsampling                       : 4:2:0
Bit depth                                : 8 bits
Scan type                                : Progressive
Compression mode                         : Lossy
Bits/(Pixel*Frame)                       : 0.172
Stream size                              : 746 MiB (91%)
Writing library                          : XviD 1.1.0 (UTC 2005-11-22)

Audio
ID                                       : 1
Format                                   : MPEG Audio
Format version                           : Version 1
Format profile                           : Layer 3
Codec ID                                 : 55
Codec ID/Hint                            : MP3
Duration                                 : 1h 51mn
Bit rate mode                            : Variable
Bit rate                                 : 79.0 Kbps
Minimum bit rate                         : 32.0 Kbps
Channel(s)                               : 1 channel
Sampling rate                            : 48.0 KHz
Compression mode                         : Lossy
Stream size                              : 63.1 MiB (8%)
Alignment                                : Aligned on interleaves
Interleave, duration                     : 24 ms (0.60 video frame)
Interleave, preload duration             : 362 ms
Writing library                          : LAME3.97b
Encoding settings                        : -m m -V 4 -q 3 -lowpass 17.5 --vbr-new -b 32
